<svg width="150" height="150" viewBox="0 0 150 150" fill="none" xmlns="http://www.w3.org/2000/svg">
<path d="M0 75C0 96.7887 33.5789 114.454 75 114.454C116.421 114.454 150 96.7887 150 75C150 53.2114 116.42 35.5465 75 35.5465C33.5801 35.5465 0 53.2114 0 75Z" fill="url(#paint0_radial_21_52)"/>
<path d="M75 111.524C114.803 111.524 147.07 95.1703 147.07 75C147.07 54.8274 114.803 38.4762 75 38.4762C35.1973 38.4762 2.92969 54.8274 2.92969 75C2.92969 95.1703 35.1973 111.524 75 111.524Z" fill="#777BB3"/>
<path d="M40.7485 79.5281C44.0216 79.5281 46.4637 78.9246 48.0094 77.7352C49.5399 76.5563 50.5958 74.516 51.1501 71.6707C51.6657 69.0105 51.4688 67.1543 50.5641 66.1512C49.6407 65.127 47.6427 64.6078 44.6262 64.6078H39.395L36.4969 79.5281H40.7485ZM23.6403 97.9066C23.5203 97.9065 23.4018 97.8798 23.2933 97.8284C23.1848 97.777 23.0891 97.7023 23.0129 97.6095C22.9367 97.5168 22.882 97.4083 22.8527 97.2919C22.8234 97.1755 22.8203 97.0541 22.8434 96.9363L30.5274 57.3996C30.5637 57.2148 30.663 57.0483 30.8083 56.9284C30.9536 56.8085 31.1359 56.7427 31.3243 56.7422H47.8876C53.093 56.7422 56.9673 58.1555 59.4036 60.9434C61.8505 63.7441 62.6075 67.6629 61.6501 72.5859C61.2598 74.591 60.5895 76.4531 59.6579 78.1219C58.6884 79.8385 57.4509 81.3893 55.9923 82.7156C54.1981 84.3938 52.1673 85.6125 49.9606 86.3285C47.7903 87.0363 45.0012 87.3949 41.6755 87.3949H34.9677L33.0528 97.2481C33.0167 97.4335 32.9172 97.6006 32.7714 97.7207C32.6256 97.8409 32.4425 97.9066 32.2536 97.9066H23.6403Z" fill="black"/>
<path d="M40.0663 65.4211H44.6261C48.2671 65.4211 49.5315 66.2203 49.9616 66.6973C50.6729 67.4871 50.8089 69.1547 50.3495 71.516C49.835 74.1609 48.8811 76.0371 47.5136 77.0895C46.1143 78.1676 43.8362 78.7137 40.7483 78.7137H37.4835L40.0663 65.4211ZM47.8874 55.9289H31.3253C30.9476 55.9289 30.5816 56.0602 30.2901 56.3003C29.9985 56.5403 29.7994 56.8743 29.7268 57.2449L22.0429 96.7828C21.9975 97.0183 22.0047 97.261 22.0639 97.4934C22.1231 97.7258 22.233 97.9422 22.3856 98.1273C22.5382 98.3123 22.7297 98.4614 22.9466 98.5639C23.1635 98.6663 23.4003 98.7196 23.6401 98.7199H32.2534C32.6311 98.7196 32.9968 98.588 33.2882 98.3477C33.5796 98.1075 33.7784 97.7734 33.8507 97.4027L35.6378 88.2082H41.6741C45.0866 88.2082 47.96 87.8356 50.2136 87.102C52.5304 86.3496 54.662 85.0734 56.5487 83.3086C58.0682 81.9252 59.3574 80.3084 60.3679 78.5191C61.3417 76.7766 62.0425 74.8312 62.4479 72.7406C63.4557 67.5574 62.6366 63.4078 60.0151 60.4078C57.4182 57.4348 53.3378 55.9277 47.8874 55.9277V55.9289ZM35.5089 80.3402H40.7483C44.221 80.341 46.8069 79.6867 48.5061 78.3773C50.2054 77.0695 51.353 74.8855 51.9491 71.8254C52.5179 68.8863 52.2581 66.8129 51.1698 65.6051C50.08 64.3973 47.8987 63.7934 44.6261 63.7934H38.7245L35.5089 80.3402ZM47.8886 57.5531C52.8714 57.5531 56.5054 58.8609 58.7905 61.4766C61.0757 64.0922 61.7632 67.743 60.853 72.4289C60.4764 74.3602 59.8417 76.125 58.9487 77.7234C58.0542 79.3234 56.8858 80.7871 55.4436 82.1145C53.7249 83.7238 51.8139 84.8703 49.7108 85.5539C47.6085 86.2383 44.93 86.5801 41.6753 86.5793H34.2972L32.2546 97.091H23.6413L31.3264 57.5531H47.8886Z" fill="white"/>
<path d="M81.3972 87.3949C81.2771 87.3951 81.1584 87.3686 81.0498 87.3175C80.9411 87.2663 80.8451 87.1917 80.7687 87.0991C80.6923 87.0064 80.6374 86.898 80.6078 86.7816C80.5783 86.6652 80.5749 86.5437 80.598 86.4258L83.9964 68.932C84.321 67.268 84.2413 66.075 83.7737 65.5687C83.4866 65.2605 82.6265 64.7437 80.0823 64.7437H73.923L69.6503 86.7375C69.6136 86.9227 69.5137 87.0894 69.3677 87.2091C69.2217 87.3288 69.0387 87.3941 68.8499 87.3937H60.3069C60.1869 87.3938 60.0684 87.3674 59.9598 87.3163C59.8512 87.2652 59.7552 87.1908 59.6787 87.0983C59.6023 87.0058 59.5472 86.8976 59.5174 86.7813C59.4876 86.665 59.4839 86.5436 59.5065 86.4258L67.1917 46.8879C67.2281 46.7027 67.3277 46.5358 67.4735 46.4159C67.6193 46.296 67.8022 46.2305 67.9909 46.2305H76.5339C76.6539 46.2304 76.7724 46.2568 76.881 46.3079C76.9896 46.359 77.0856 46.4334 77.1621 46.5259C77.2386 46.6184 77.2937 46.7266 77.3234 46.8429C77.3532 46.9592 77.3569 47.0806 77.3343 47.1984L75.4804 56.7422H82.105C87.1523 56.7422 90.5741 57.6305 92.5675 59.4621C94.5983 61.3289 95.2335 64.3137 94.4519 68.3367L90.8765 86.7375C90.8398 86.9225 90.7401 87.0891 90.5944 87.2087C90.4486 87.3284 90.2658 87.3938 90.0772 87.3937L81.3972 87.3949Z" fill="black"/>
<path d="M76.5352 45.416H67.991C67.6132 45.4161 67.2471 45.5475 66.9555 45.7878C66.6639 46.0281 66.4649 46.3623 66.3926 46.7332L58.7086 86.2699C58.663 86.5055 58.6701 86.7483 58.7292 86.9808C58.7884 87.2134 58.8982 87.43 59.0508 87.6152C59.2034 87.8004 59.395 87.9496 59.612 88.0521C59.829 88.1546 60.0659 88.2079 60.3059 88.2082H68.85C69.2279 88.2081 69.5939 88.0767 69.8855 87.8364C70.1771 87.5961 70.3761 87.2619 70.4485 86.891L74.5934 65.557H80.0801C82.6207 65.557 83.1551 66.0996 83.175 66.1242C83.3297 66.2883 83.5324 67.0559 83.1973 68.7773L79.7988 86.2699C79.7532 86.5056 79.7603 86.7485 79.8195 86.9811C79.8787 87.2138 79.9887 87.4304 80.1414 87.6157C80.2941 87.8009 80.4859 87.95 80.703 88.0525C80.9201 88.1549 81.1572 88.2081 81.3973 88.2082H90.0785C90.4562 88.2079 90.822 88.0763 91.1133 87.836C91.4047 87.5957 91.6035 87.2617 91.6758 86.891L95.2512 68.4926C96.0891 64.173 95.3719 60.934 93.1184 58.8633C90.9668 56.8875 87.3645 55.9277 82.1051 55.9277H76.4684L78.1336 47.3555C78.1794 47.1197 78.1725 46.8767 78.1133 46.6439C78.0542 46.4111 77.9443 46.1943 77.7916 46.0089C77.6388 45.8236 77.447 45.6743 77.2298 45.5718C77.0125 45.4693 76.7753 45.4161 76.5352 45.416ZM76.5352 47.0449L74.4926 57.5543H82.1051C86.8949 57.5543 90.1984 58.3902 92.0156 60.0621C93.8344 61.7324 94.3805 64.4395 93.6539 68.1832L90.0774 86.5805H81.3973L84.7969 69.0867C85.1836 67.0969 85.041 65.7398 84.3692 65.0156C83.6973 64.2922 82.2684 63.9305 80.0824 63.9305H73.2516L68.85 86.5793H60.3047L67.9899 47.0414H76.5352V47.0449Z" fill="white"/>
<path d="M107.972 79.5281C111.245 79.5281 113.688 78.9246 115.235 77.7352C116.763 76.5563 117.82 74.516 118.375 71.6707C118.89 69.0105 118.695 67.1543 117.789 66.1512C116.865 65.127 114.867 64.6078 111.851 64.6078H106.621L103.72 79.5281H107.972ZM90.8673 97.9066C90.747 97.9068 90.6283 97.8804 90.5195 97.8291C90.4107 97.7779 90.3147 97.7032 90.2383 97.6104C90.1618 97.5176 90.1069 97.409 90.0775 97.2925C90.0481 97.1759 90.0448 97.0543 90.068 96.9363L97.752 57.3996C97.7884 57.2144 97.888 57.0476 98.0338 56.9276C98.1796 56.8077 98.3625 56.7422 98.5512 56.7422H115.113C120.319 56.7422 124.193 58.1555 126.628 60.9434C129.076 63.7441 129.832 67.6629 128.875 72.5859C128.508 74.525 127.836 76.3936 126.884 78.1219C125.914 79.8385 124.677 81.3893 123.218 82.7156C121.425 84.3938 119.392 85.6125 117.186 86.3285C115.016 87.0363 112.227 87.3949 108.9 87.3949H102.193L100.28 97.2481C100.244 97.4337 100.144 97.6009 99.9979 97.7211C99.8518 97.8413 99.6685 97.9069 99.4794 97.9066H90.8673Z" fill="black"/>
<path d="M107.291 65.4211H111.851C115.492 65.4211 116.756 66.2203 117.185 66.6973C117.9 67.4871 118.033 69.1547 117.575 71.516C117.06 74.1609 116.106 76.0371 114.738 77.0895C113.338 78.1676 111.06 78.7137 107.973 78.7137H104.708L107.291 65.4211ZM115.112 55.9289H98.5499C98.1724 55.9292 97.8067 56.0606 97.5154 56.3007C97.2241 56.5407 97.0251 56.8745 96.9526 57.2449L89.2675 96.7828C89.2221 97.0184 89.2293 97.2612 89.2886 97.4936C89.3479 97.7262 89.4578 97.9427 89.6106 98.1278C89.7633 98.3128 89.955 98.4619 90.172 98.5642C90.389 98.6666 90.626 98.7198 90.8659 98.7199H99.4792C99.8568 98.7196 100.223 98.588 100.514 98.3477C100.805 98.1075 101.004 97.7734 101.076 97.4027L102.864 88.2082H108.899C112.31 88.2082 115.185 87.8356 117.437 87.102C119.755 86.3496 121.887 85.0734 123.774 83.3074C125.293 81.9243 126.582 80.3079 127.592 78.5191C128.567 76.7766 129.266 74.8312 129.673 72.7406C130.68 67.5574 129.862 63.4078 127.24 60.4078C124.643 57.4348 120.564 55.9277 115.111 55.9277L115.112 55.9289ZM102.733 80.3402H107.972C111.444 80.341 114.031 79.6867 115.732 78.3773C117.431 77.0695 118.578 74.8855 119.173 71.8254C119.744 68.8863 119.484 66.8129 118.393 65.6051C117.303 64.3973 115.122 63.7934 111.851 63.7934H105.95L102.733 80.3402ZM115.112 57.5531C120.095 57.5531 123.729 58.8609 126.014 61.4766C128.299 64.0922 128.986 67.743 128.075 72.4289C127.7 74.3602 127.066 76.125 126.172 77.7234C125.278 79.3234 124.11 80.7871 122.666 82.1145C120.947 83.7238 119.036 84.8703 116.933 85.5539C114.832 86.2383 112.153 86.5801 108.899 86.5793H101.522L99.4768 97.091H90.8636L98.5487 57.5531H115.112Z" fill="white"/>
<defs>
<radialGradient id="paint0_radial_21_52" cx="0" cy="0" r="1" gradientUnits="userSpaceOnUse" gradientTransform="translate(45.0305 49.4168) scale(98.486 98.486)">
<stop stop-color="#AEB2D5"/>
<stop offset="0.3" stop-color="#AEB2D5"/>
<stop offset="0.75" stop-color="#484C89"/>
<stop offset="1" stop-color="#484C89"/>
</radialGradient>
</defs>
</svg>
