<svg width="150" height="150" viewBox="0 0 150 150" fill="none" xmlns="http://www.w3.org/2000/svg">
<path d="M74.2863 14.3531C69.3387 14.3765 64.616 14.7972 60.4582 15.5332C48.2121 17.6965 45.9902 22.2246 45.9902 30.5765V41.6051H74.9273V45.2812H35.1293C26.7199 45.2812 19.3559 50.3355 17.0519 59.9543C14.3941 70.9758 14.2769 77.8547 17.0519 89.3637C19.1086 97.9312 24.0211 104.034 32.4316 104.034H42.382V90.8133C42.382 81.2613 50.6449 72.8367 60.4594 72.8367H89.3637C97.4098 72.8367 103.832 66.2109 103.832 58.132V30.5777C103.832 22.7344 97.2152 16.8433 89.3637 15.5344C84.3902 14.707 79.2328 14.3308 74.2863 14.3531ZM58.6371 23.223C61.6254 23.223 64.0676 25.7039 64.0676 28.7554C64.0676 31.7941 61.6266 34.2515 58.6371 34.2515C55.6371 34.2515 53.2078 31.7941 53.2078 28.7554C53.2066 25.7039 55.6371 23.223 58.6371 23.223Z" fill="url(#paint0_linear_21_65)"/>
<path d="M107.44 45.2812V58.132C107.44 68.0929 98.993 76.4777 89.3625 76.4777H60.4582C52.541 76.4777 45.9902 83.2546 45.9902 91.1836V118.74C45.9902 126.581 52.8082 131.195 60.4582 133.444C69.6176 136.135 78.402 136.623 89.3625 133.444C96.6469 131.333 103.83 127.089 103.83 118.74V107.71H74.9273V104.033H118.301C126.71 104.033 129.846 98.1679 132.771 89.3625C135.792 80.298 135.662 71.5804 132.771 59.9531C130.692 51.58 126.723 45.28 118.301 45.28L107.44 45.2812ZM91.1824 115.063C94.1836 115.063 96.6129 117.52 96.6129 120.561C96.6129 123.611 94.1824 126.091 91.1824 126.091C88.1941 126.091 85.7531 123.611 85.7531 120.561C85.7531 117.52 88.1941 115.063 91.1824 115.063Z" fill="url(#paint1_linear_21_65)"/>
<path opacity="0.444" d="M114.034 140.153C114.034 144.305 96.6715 147.671 75.2555 147.671C53.8383 147.671 36.4758 144.305 36.4758 140.153C36.4758 136.001 53.8372 132.633 75.2555 132.633C96.6715 132.633 114.034 135.998 114.034 140.153Z" fill="url(#paint2_radial_21_65)"/>
<defs>
<linearGradient id="paint0_linear_21_65" x1="12.1135" y1="17.8015" x2="78.8562" y2="74.7193" gradientUnits="userSpaceOnUse">
<stop stop-color="#5A9FD4"/>
<stop offset="1" stop-color="#306998"/>
</linearGradient>
<linearGradient id="paint1_linear_21_65" x1="103.967" y1="110.1" x2="80.0324" y2="76.5354" gradientUnits="userSpaceOnUse">
<stop stop-color="#FFD43B"/>
<stop offset="1" stop-color="#FFE873"/>
</linearGradient>
<radialGradient id="paint2_radial_21_65" cx="0" cy="0" r="1" gradientUnits="userSpaceOnUse" gradientTransform="translate(75.0988 139.937) rotate(-90) scale(7.52147 33.0631)">
<stop stop-color="#B8B8B8" stop-opacity="0.498"/>
<stop offset="1" stop-color="#7F7F7F" stop-opacity="0"/>
</radialGradient>
</defs>
</svg>
