<svg width="150" height="150" viewBox="0 0 150 150" fill="none" xmlns="http://www.w3.org/2000/svg">
<path d="M136.681 82.3312C136.494 82.3312 136.306 82.4562 136.181 82.7687C134.925 86.4 133.169 88.5937 131.731 88.5937C130.919 88.5937 130.606 87.6562 130.606 86.2812C130.606 82.7062 132.731 75.125 133.794 71.6187C133.919 71.1812 133.981 70.8062 133.981 70.4937C133.981 69.4875 133.419 68.9812 132.044 68.9812C130.606 68.9812 128.975 69.5437 127.469 72.2437C126.969 69.8625 125.344 68.8562 123.081 68.8562C120.519 68.8562 118.006 70.55 115.944 73.2437C113.875 75.9375 111.431 76.8187 109.613 76.375C110.925 73.1875 111.425 70.7375 111.425 68.9812C111.425 66.1687 110.05 64.475 107.8 64.475C104.412 64.475 102.469 67.7312 102.469 71.1125C102.469 73.7437 103.656 76.4375 106.294 77.7562C104.1 82.7062 100.906 87.2187 99.65 87.2187C98.0875 87.2187 97.5875 79.5125 97.7125 73.9937C97.775 70.8687 98.025 70.6812 98.025 69.7375C98.025 69.175 97.65 68.8 96.2062 68.8C92.8812 68.8 91.8187 71.6124 91.6937 74.875C91.6312 76.125 91.4437 77.3125 91.1312 78.5062C89.7562 83.4562 86.8687 87.2812 84.9875 87.2812C84.1125 87.2812 83.8625 86.4062 83.8625 85.275C83.8625 81.7 85.8625 77.1937 85.8625 73.3687C85.8625 70.5562 84.6125 68.7937 82.3 68.7937C79.5375 68.7937 75.9688 72.0562 72.525 78.1312C73.65 73.4937 74.0875 68.9875 70.7687 68.9875C70.0187 68.9875 69.3292 69.175 68.7 69.55C68.4871 69.6486 68.3081 69.8081 68.1858 70.0083C68.0634 70.2085 68.0031 70.4405 68.0125 70.6749C68.325 75.625 64 88.3437 59.9312 88.3437C59.1812 88.3437 58.8063 87.5312 58.8063 86.2187C58.8063 82.6437 60.9312 75.0625 61.9937 71.55C62.1106 71.1646 62.1737 70.765 62.1813 70.3625C62.1813 69.425 61.6187 68.925 60.2438 68.925C58.8062 68.925 57.175 69.4875 55.6687 72.175C55.1062 69.8 53.5438 68.8 51.2812 68.8C47.5875 68.8 43.5125 72.675 41.6938 77.7562C39.2563 84.525 34.4312 91.1 27.85 91.1C21.9 91.1 18.7625 86.15 18.7625 78.3187C18.7625 66.9812 27.1 57.7687 33.2375 57.7687C36.1812 57.7687 37.5625 59.6437 37.5625 62.5312C37.5625 66.0375 35.625 67.6062 35.625 68.9812C35.625 69.3562 35.9375 69.7937 36.625 69.7937C39.3125 69.7937 42.45 66.6687 42.45 62.3437C42.45 58.0187 39.0625 54.95 32.925 54.95C22.7125 54.95 12.5 65.1624 12.5 78.3249C12.5 88.7812 17.6375 95.05 26.5375 95.05C32.6125 95.05 37.9375 90.35 40.7562 84.8375C41.0688 89.4125 43.1375 91.7875 46.3312 91.7875C49.15 91.7875 51.4062 90.0999 53.1625 87.1562C53.85 90.2187 55.6 91.7249 57.925 91.7249C60.55 91.7249 62.8125 90.0375 64.875 86.9687C64.875 89.4062 65.375 91.7249 67.5125 91.7249C68.5125 91.7249 69.7 91.475 69.8875 90.6C72.1437 81.3875 77.6625 73.8062 79.35 73.8062C79.85 73.8062 79.975 74.3062 79.975 74.8687C79.975 77.3812 78.225 82.5187 78.225 85.775C78.225 89.35 79.725 91.6625 82.8625 91.6625C86.3063 91.6625 89.8125 87.4687 92.1312 81.2625C92.8812 87.0312 94.45 91.6625 96.8938 91.6625C99.9 91.6625 105.35 85.275 108.613 78.5062C109.863 78.6937 111.806 78.6312 113.688 77.3187C112.875 79.3187 112.438 81.5125 112.438 83.6437C112.438 89.9125 115.438 91.6625 118.006 91.6625C120.825 91.6625 123.081 89.975 124.838 87.0312C125.4 89.6562 126.9 91.6 129.6 91.6C133.8 91.6 137.494 87.2812 137.494 83.7062C137.556 82.9562 137.119 82.3312 136.681 82.3312ZM48.9625 88.2812C47.275 88.2812 46.5875 86.5937 46.5875 84.0187C46.5875 79.575 49.65 72.1187 52.85 72.1187C54.225 72.1187 54.7875 73.7437 54.7875 75.8125C54.7875 80.325 51.9125 88.2812 48.9625 88.2812ZM107.419 75C106.419 73.8125 106.044 72.1187 106.044 70.6749C106.044 68.8624 106.731 67.3562 107.481 67.3562C108.231 67.3562 108.544 68.1062 108.544 69.2312C108.481 70.9874 107.856 73.6812 107.419 75ZM120.637 88.2812C118.95 88.2812 118.263 86.2812 118.263 84.0187C118.263 79.7 121.325 72.1187 124.525 72.1187C125.9 72.1187 126.4 73.7437 126.4 75.8125C126.463 80.325 123.65 88.2812 120.637 88.2812Z" fill="#2129BF"/>
</svg>
