<svg width="150" height="149" viewBox="0 0 150 149" fill="none" xmlns="http://www.w3.org/2000/svg">
<g opacity="0.5" clip-path="url(#clip0_21_30)">
<mask id="mask0_21_30" style="mask-type:luminance" maskUnits="userSpaceOnUse" x="0" y="0" width="150" height="149">
<path d="M105.954 148.011C107.143 148.474 108.414 148.688 109.689 148.639C110.965 148.59 112.216 148.28 113.366 147.726L144.128 132.924C145.713 132.161 147.049 130.967 147.985 129.478C148.92 127.989 149.417 126.266 149.416 124.508V24.1389C149.416 22.3806 148.92 20.6579 147.985 19.1691C147.049 17.6803 145.712 16.4858 144.128 15.7231L113.367 0.920527C111.628 0.084363 109.673 -0.190893 107.771 0.132842C105.87 0.456577 104.116 1.3633 102.752 2.72756L43.8615 56.4551L18.2091 36.9832C17.052 36.1049 15.6239 35.6593 14.1726 35.7238C12.7213 35.7884 11.3384 36.3589 10.2638 37.3365L2.03665 44.8207C-0.676243 47.2881 -0.679173 51.5561 2.02962 54.0276L24.2759 74.3233L2.02962 94.6184C-0.679173 97.0904 -0.676243 101.358 2.03665 103.826L10.2638 111.309C11.3383 112.287 12.7212 112.858 14.1725 112.922C15.6238 112.987 17.0519 112.542 18.2091 111.663L43.8615 92.1908L102.752 145.918C103.663 146.83 104.753 147.543 105.954 148.011ZM112.085 40.4039L67.4003 74.3233L112.085 108.242V40.4039Z" fill="white"/>
</mask>
<g mask="url(#mask0_21_30)">
<path d="M144.22 15.7461L113.433 0.923055C111.695 0.0859552 109.739 -0.19003 107.836 0.133289C105.934 0.456609 104.179 1.36325 102.814 2.72774L2.03071 94.6186C-0.679832 97.0906 -0.676316 101.358 2.03775 103.826L10.2702 111.31C11.3456 112.287 12.7294 112.858 14.1815 112.923C15.6337 112.987 17.0627 112.542 18.2208 111.664L139.587 19.5916C143.659 16.5031 149.507 19.407 149.507 24.5176V24.1602C149.507 22.4022 149.011 20.68 148.075 19.1915C147.14 17.7031 145.803 16.5088 144.22 15.7461Z" fill="#0065A9"/>
</g>
<mask id="mask1_21_30" style="mask-type:luminance" maskUnits="userSpaceOnUse" x="0" y="0" width="150" height="149">
<path d="M105.954 148.011C107.143 148.474 108.414 148.688 109.689 148.639C110.965 148.59 112.216 148.28 113.366 147.726L144.128 132.924C145.713 132.161 147.049 130.967 147.985 129.478C148.92 127.989 149.417 126.266 149.416 124.508V24.1389C149.416 22.3806 148.92 20.6579 147.985 19.1691C147.049 17.6803 145.712 16.4858 144.128 15.7231L113.367 0.920527C111.628 0.084363 109.673 -0.190893 107.771 0.132842C105.87 0.456577 104.116 1.3633 102.752 2.72756L43.8615 56.4551L18.2091 36.9832C17.052 36.1049 15.6239 35.6593 14.1726 35.7238C12.7213 35.7884 11.3384 36.3589 10.2638 37.3365L2.03665 44.8207C-0.676243 47.2881 -0.679173 51.5561 2.02962 54.0276L24.2759 74.3233L2.02962 94.6184C-0.679173 97.0904 -0.676243 101.358 2.03665 103.826L10.2638 111.309C11.3383 112.287 12.7212 112.858 14.1725 112.922C15.6238 112.987 17.0519 112.542 18.2091 111.663L43.8615 92.1908L102.752 145.918C103.663 146.83 104.753 147.543 105.954 148.011ZM112.085 40.4039L67.4003 74.3233L112.085 108.242V40.4039Z" fill="white"/>
</mask>
<g mask="url(#mask1_21_30)">
<path d="M144.22 132.9L113.433 147.723C111.694 148.56 109.739 148.835 107.836 148.512C105.934 148.189 104.179 147.282 102.814 145.918L2.03071 54.0275C-0.679832 51.556 -0.676316 47.2881 2.03775 44.8207L10.2702 37.3365C11.3457 36.3587 12.7295 35.7881 14.1816 35.7235C15.6338 35.659 17.0627 36.1046 18.2208 36.9832L139.587 129.054C143.659 132.143 149.507 129.239 149.507 124.128V124.486C149.507 126.244 149.011 127.966 148.075 129.455C147.14 130.943 145.803 132.137 144.22 132.9Z" fill="#007ACC"/>
</g>
<mask id="mask2_21_30" style="mask-type:luminance" maskUnits="userSpaceOnUse" x="0" y="0" width="150" height="149">
<path d="M105.954 148.011C107.143 148.474 108.414 148.688 109.689 148.639C110.965 148.59 112.216 148.28 113.366 147.726L144.128 132.924C145.713 132.161 147.049 130.967 147.985 129.478C148.92 127.989 149.417 126.266 149.416 124.508V24.1389C149.416 22.3806 148.92 20.6579 147.985 19.1691C147.049 17.6803 145.712 16.4858 144.128 15.7231L113.367 0.920527C111.628 0.084363 109.673 -0.190893 107.771 0.132842C105.87 0.456577 104.116 1.3633 102.752 2.72756L43.8615 56.4551L18.2091 36.9832C17.052 36.1049 15.6239 35.6593 14.1726 35.7238C12.7213 35.7884 11.3384 36.3589 10.2638 37.3365L2.03665 44.8207C-0.676243 47.2881 -0.679173 51.5561 2.02962 54.0276L24.2759 74.3233L2.02962 94.6184C-0.679173 97.0904 -0.676243 101.358 2.03665 103.826L10.2638 111.309C11.3383 112.287 12.7212 112.858 14.1725 112.922C15.6238 112.987 17.0519 112.542 18.2091 111.663L43.8615 92.1908L102.752 145.918C103.663 146.83 104.753 147.543 105.954 148.011ZM112.085 40.4039L67.4003 74.3233L112.085 108.242V40.4039Z" fill="white"/>
</mask>
<g mask="url(#mask2_21_30)">
<path d="M113.337 147.735C111.598 148.571 109.641 148.847 107.739 148.523C105.836 148.2 104.081 147.293 102.717 145.928C106.162 149.374 112.055 146.933 112.055 142.059V6.60527C112.055 1.73144 106.162 -0.708993 102.717 2.73691C104.081 1.37215 105.836 0.46518 107.739 0.14145C109.641 -0.182281 111.598 0.0932316 113.337 0.929875L144.118 15.7324C145.703 16.4948 147.04 17.6891 147.976 19.1779C148.912 20.6668 149.409 22.3896 149.409 24.1482V124.518C149.409 128.106 147.352 131.378 144.118 132.933L113.337 147.735Z" fill="#1F9CF0"/>
</g>
<mask id="mask3_21_30" style="mask-type:luminance" maskUnits="userSpaceOnUse" x="0" y="0" width="150" height="149">
<path d="M105.954 148.011C107.143 148.474 108.414 148.688 109.689 148.639C110.965 148.59 112.216 148.28 113.366 147.726L144.128 132.924C145.713 132.161 147.049 130.967 147.985 129.478C148.92 127.989 149.417 126.266 149.416 124.508V24.1389C149.416 22.3806 148.92 20.6579 147.985 19.1691C147.049 17.6803 145.712 16.4858 144.128 15.7231L113.367 0.920527C111.628 0.084363 109.673 -0.190893 107.771 0.132842C105.87 0.456577 104.116 1.3633 102.752 2.72756L43.8615 56.4551L18.2091 36.9832C17.052 36.1049 15.6239 35.6593 14.1726 35.7238C12.7213 35.7884 11.3384 36.3589 10.2638 37.3365L2.03665 44.8207C-0.676243 47.2881 -0.679173 51.5561 2.02962 54.0276L24.2759 74.3233L2.02962 94.6184C-0.679173 97.0904 -0.676243 101.358 2.03665 103.826L10.2638 111.309C11.3383 112.287 12.7212 112.858 14.1725 112.922C15.6238 112.987 17.0519 112.542 18.2091 111.663L43.8615 92.1908L102.752 145.918C103.663 146.83 104.753 147.543 105.954 148.011ZM112.085 40.4039L67.4003 74.3233L112.085 108.242V40.4039Z" fill="white"/>
</mask>
<g mask="url(#mask3_21_30)">
<path d="M105.954 148.011C107.143 148.474 108.414 148.688 109.689 148.639C110.965 148.59 112.216 148.28 113.366 147.726L144.128 132.923C145.712 132.161 147.049 130.966 147.984 129.478C148.92 127.989 149.416 126.266 149.416 124.508V24.1389C149.416 22.3806 148.92 20.658 147.985 19.1692C147.049 17.6804 145.712 16.4859 144.128 15.7231L113.365 0.919971C111.627 0.083941 109.672 -0.191242 107.771 0.13249C105.869 0.456223 104.115 1.36287 102.752 2.727L43.8615 56.4551L18.2091 36.9832C17.052 36.1049 15.6239 35.6593 14.1726 35.7239C12.7213 35.7884 11.3384 36.359 10.2638 37.3366L2.03665 44.8208C-0.676243 47.2881 -0.679173 51.5561 2.02962 54.0276L24.2759 74.3233L2.02962 94.6184C-0.679173 97.0905 -0.676243 101.358 2.03665 103.826L10.2638 111.309C11.3383 112.287 12.7212 112.858 14.1725 112.922C15.6238 112.987 17.0519 112.542 18.2091 111.663L43.8615 92.1909L102.752 145.918C103.663 146.83 104.753 147.542 105.954 148.011ZM112.085 40.4034L67.4003 74.3233L112.085 108.242V40.4034Z" fill="url(#paint0_linear_21_30)" fill-opacity="0.25"/>
</g>
</g>
<defs>
<linearGradient id="paint0_linear_21_30" x1="7470.82" y1="0.000488281" x2="7470.82" y2="14864.6" gradientUnits="userSpaceOnUse">
<stop stop-color="white"/>
<stop offset="1" stop-color="white" stop-opacity="0"/>
</linearGradient>
<clipPath id="clip0_21_30">
<rect width="150" height="148.828" fill="white"/>
</clipPath>
</defs>
</svg>
