<svg width="150" height="150" viewBox="0 0 150 150" fill="none" xmlns="http://www.w3.org/2000/svg">
<g clip-path="url(#clip0_21_47)">
<path d="M114.844 0H35.1562C15.74 0 0 15.74 0 35.1562V114.844C0 134.26 15.74 150 35.1562 150H114.844C134.26 150 150 134.26 150 114.844V35.1562C150 15.74 134.26 0 114.844 0Z" fill="#0277BD"/>
<path d="M31.4959 60.1471L33.1729 78.8631H75.0562V60.1471H31.4959ZM75.0557 22.2656H28.125L29.8266 40.9816H75.0557V22.2656ZM75.0557 128.227V108.755L74.9736 108.776L54.1295 103.148L52.7971 88.2211H34.009L36.6311 117.608L74.9695 128.251L75.0557 128.227Z" fill="#EBEBEB"/>
<path d="M98.0379 78.8631L95.8652 103.136L74.9912 108.771V128.242L113.36 117.608L113.641 114.446L118.039 65.1732L118.496 60.1471L121.875 22.2656H74.9912V40.9816H101.364L99.6609 60.1471H74.9912V78.8631H98.0379Z" fill="white"/>
</g>
<defs>
<clipPath id="clip0_21_47">
<rect width="150" height="150" fill="white"/>
</clipPath>
</defs>
</svg>
