<svg width="150" height="150" viewBox="0 0 150 150" fill="none" xmlns="http://www.w3.org/2000/svg">
<g clip-path="url(#clip0_21_20)">
<path d="M114.844 0H35.1562C15.74 0 0 15.74 0 35.1562V114.844C0 134.26 15.74 150 35.1562 150H114.844C134.26 150 150 134.26 150 114.844V35.1562C150 15.74 134.26 0 114.844 0Z" fill="#E14E1D"/>
<path d="M28.125 22.2656L33.1699 78.8631H98.0391L95.8623 103.138L74.976 108.786L54.1289 103.147L52.735 87.5596H33.9492L36.6357 117.607L74.9719 128.255L113.357 117.607L118.503 60.1494H50.2875L48.5748 40.9834H120.199L121.875 22.2656H28.125Z" fill="white"/>
<path d="M75 22.2656H28.125L33.1699 78.8631H75V60.1494H50.2875L48.5748 40.9834H75V22.2656ZM75 108.778L74.976 108.786L54.1289 103.147L52.735 87.5596H33.9492L36.6357 117.607L74.9719 128.255L75.0006 128.246L75 108.778Z" fill="#EBEBEB"/>
</g>
<defs>
<clipPath id="clip0_21_20">
<rect width="150" height="150" fill="white"/>
</clipPath>
</defs>
</svg>
